<mxfile host="app.diagrams.net" modified="2021-12-30T07:05:59.106Z" agent="5.0 (Macintosh; Intel Mac OS X 10_15_7) AppleWebKit/537.36 (KHTML, like Gecko) Chrome/96.0.4664.110 Safari/537.36" etag="Q_Le3ynoSgq40R9ywlqC" version="16.1.0" type="github">
  <diagram id="DUFXbz61ooDvJr8i2V0J" name="Page-1">
    <mxGraphModel dx="1426" dy="802" grid="1" gridSize="10" guides="1" tooltips="1" connect="1" arrows="1" fold="1" page="1" pageScale="1" pageWidth="850" pageHeight="1100" math="0" shadow="0">
      <root>
        <mxCell id="0" />
        <mxCell id="1" parent="0" />
        <mxCell id="3a-3tXw0doICXs7LY1nJ-1" value="patch fapiao" style="swimlane;startSize=20;horizontal=1;childLayout=treeLayout;horizontalTree=0;resizable=0;containerType=tree;" vertex="1" parent="1">
          <mxGeometry x="140" y="110" width="672" height="820" as="geometry" />
        </mxCell>
        <mxCell id="3a-3tXw0doICXs7LY1nJ-2" value="http request" style="whiteSpace=wrap;html=1;" vertex="1" parent="3a-3tXw0doICXs7LY1nJ-1">
          <mxGeometry x="184.5" y="40" width="100" height="40" as="geometry" />
        </mxCell>
        <mxCell id="3a-3tXw0doICXs7LY1nJ-3" value="find fapiao" style="whiteSpace=wrap;html=1;" vertex="1" parent="3a-3tXw0doICXs7LY1nJ-1">
          <mxGeometry x="184.5" y="130" width="100" height="40" as="geometry" />
        </mxCell>
        <mxCell id="3a-3tXw0doICXs7LY1nJ-4" value="" style="edgeStyle=elbowEdgeStyle;elbow=vertical;html=1;rounded=0;" edge="1" parent="3a-3tXw0doICXs7LY1nJ-1" source="3a-3tXw0doICXs7LY1nJ-2" target="3a-3tXw0doICXs7LY1nJ-3">
          <mxGeometry relative="1" as="geometry" />
        </mxCell>
        <mxCell id="3a-3tXw0doICXs7LY1nJ-9" value="" style="edgeStyle=elbowEdgeStyle;elbow=vertical;html=1;rounded=0;" edge="1" target="3a-3tXw0doICXs7LY1nJ-10" source="3a-3tXw0doICXs7LY1nJ-3" parent="3a-3tXw0doICXs7LY1nJ-1">
          <mxGeometry relative="1" as="geometry">
            <mxPoint x="122.5" y="400" as="sourcePoint" />
          </mxGeometry>
        </mxCell>
        <mxCell id="3a-3tXw0doICXs7LY1nJ-10" value="&lt;font style=&quot;font-size: 10px&quot;&gt;skip validate(not vat or pending validation)&lt;/font&gt;" style="whiteSpace=wrap;html=1;" vertex="1" parent="3a-3tXw0doICXs7LY1nJ-1">
          <mxGeometry x="20" y="220" width="100" height="40" as="geometry" />
        </mxCell>
        <mxCell id="3a-3tXw0doICXs7LY1nJ-13" value="" style="edgeStyle=elbowEdgeStyle;elbow=vertical;html=1;rounded=0;" edge="1" target="3a-3tXw0doICXs7LY1nJ-14" source="3a-3tXw0doICXs7LY1nJ-10" parent="3a-3tXw0doICXs7LY1nJ-1">
          <mxGeometry relative="1" as="geometry">
            <mxPoint x="52.5" y="280" as="sourcePoint" />
          </mxGeometry>
        </mxCell>
        <mxCell id="3a-3tXw0doICXs7LY1nJ-14" value="update record" style="whiteSpace=wrap;html=1;" vertex="1" parent="3a-3tXw0doICXs7LY1nJ-1">
          <mxGeometry x="20" y="310" width="100" height="40" as="geometry" />
        </mxCell>
        <mxCell id="3a-3tXw0doICXs7LY1nJ-17" value="" style="edgeStyle=elbowEdgeStyle;elbow=vertical;html=1;rounded=0;" edge="1" target="3a-3tXw0doICXs7LY1nJ-18" source="3a-3tXw0doICXs7LY1nJ-3" parent="3a-3tXw0doICXs7LY1nJ-1">
          <mxGeometry relative="1" as="geometry">
            <mxPoint x="52.5" y="280" as="sourcePoint" />
          </mxGeometry>
        </mxCell>
        <mxCell id="3a-3tXw0doICXs7LY1nJ-18" value="&lt;font style=&quot;font-size: 12px&quot;&gt;require validation&lt;/font&gt;" style="whiteSpace=wrap;html=1;" vertex="1" parent="3a-3tXw0doICXs7LY1nJ-1">
          <mxGeometry x="349" y="220" width="100" height="40" as="geometry" />
        </mxCell>
        <mxCell id="3a-3tXw0doICXs7LY1nJ-21" value="" style="edgeStyle=elbowEdgeStyle;elbow=vertical;html=1;rounded=0;" edge="1" target="3a-3tXw0doICXs7LY1nJ-22" source="3a-3tXw0doICXs7LY1nJ-18" parent="3a-3tXw0doICXs7LY1nJ-1">
          <mxGeometry relative="1" as="geometry">
            <mxPoint x="122.5" y="280" as="sourcePoint" />
          </mxGeometry>
        </mxCell>
        <mxCell id="3a-3tXw0doICXs7LY1nJ-22" value="&lt;font style=&quot;font-size: 12px&quot;&gt;validated&lt;/font&gt;" style="whiteSpace=wrap;html=1;" vertex="1" parent="3a-3tXw0doICXs7LY1nJ-1">
          <mxGeometry x="216" y="310" width="100" height="40" as="geometry" />
        </mxCell>
        <mxCell id="3a-3tXw0doICXs7LY1nJ-23" value="" style="edgeStyle=elbowEdgeStyle;elbow=vertical;html=1;rounded=0;" edge="1" target="3a-3tXw0doICXs7LY1nJ-24" source="3a-3tXw0doICXs7LY1nJ-18" parent="3a-3tXw0doICXs7LY1nJ-1">
          <mxGeometry relative="1" as="geometry">
            <mxPoint x="192.5" y="370" as="sourcePoint" />
          </mxGeometry>
        </mxCell>
        <mxCell id="3a-3tXw0doICXs7LY1nJ-24" value="&lt;font style=&quot;font-size: 12px&quot;&gt;not validated&lt;/font&gt;" style="whiteSpace=wrap;html=1;" vertex="1" parent="3a-3tXw0doICXs7LY1nJ-1">
          <mxGeometry x="482" y="310" width="100" height="40" as="geometry" />
        </mxCell>
        <mxCell id="3a-3tXw0doICXs7LY1nJ-25" value="" style="edgeStyle=elbowEdgeStyle;elbow=vertical;html=1;rounded=0;" edge="1" target="3a-3tXw0doICXs7LY1nJ-26" source="3a-3tXw0doICXs7LY1nJ-22" parent="3a-3tXw0doICXs7LY1nJ-1">
          <mxGeometry relative="1" as="geometry">
            <mxPoint x="332.5" y="370" as="sourcePoint" />
          </mxGeometry>
        </mxCell>
        <mxCell id="3a-3tXw0doICXs7LY1nJ-26" value="&lt;font style=&quot;font-size: 12px&quot;&gt;update transaction date&lt;/font&gt;" style="whiteSpace=wrap;html=1;" vertex="1" parent="3a-3tXw0doICXs7LY1nJ-1">
          <mxGeometry x="146" y="400" width="100" height="40" as="geometry" />
        </mxCell>
        <mxCell id="3a-3tXw0doICXs7LY1nJ-27" value="" style="edgeStyle=elbowEdgeStyle;elbow=vertical;html=1;rounded=0;" edge="1" target="3a-3tXw0doICXs7LY1nJ-28" source="3a-3tXw0doICXs7LY1nJ-22" parent="3a-3tXw0doICXs7LY1nJ-1">
          <mxGeometry relative="1" as="geometry">
            <mxPoint x="262.5" y="460" as="sourcePoint" />
          </mxGeometry>
        </mxCell>
        <mxCell id="3a-3tXw0doICXs7LY1nJ-28" value="&lt;font style=&quot;font-size: 12px&quot;&gt;400&lt;/font&gt;" style="whiteSpace=wrap;html=1;" vertex="1" parent="3a-3tXw0doICXs7LY1nJ-1">
          <mxGeometry x="286" y="400" width="100" height="40" as="geometry" />
        </mxCell>
        <mxCell id="3a-3tXw0doICXs7LY1nJ-29" value="" style="edgeStyle=elbowEdgeStyle;elbow=vertical;html=1;rounded=0;" edge="1" target="3a-3tXw0doICXs7LY1nJ-30" source="3a-3tXw0doICXs7LY1nJ-24" parent="3a-3tXw0doICXs7LY1nJ-1">
          <mxGeometry relative="1" as="geometry">
            <mxPoint x="521.5" y="370" as="sourcePoint" />
          </mxGeometry>
        </mxCell>
        <mxCell id="3a-3tXw0doICXs7LY1nJ-30" value="&lt;font style=&quot;font-size: 12px&quot;&gt;update and validate&lt;/font&gt;" style="whiteSpace=wrap;html=1;" vertex="1" parent="3a-3tXw0doICXs7LY1nJ-1">
          <mxGeometry x="482" y="400" width="100" height="40" as="geometry" />
        </mxCell>
        <mxCell id="3a-3tXw0doICXs7LY1nJ-31" value="" style="edgeStyle=elbowEdgeStyle;elbow=vertical;html=1;rounded=0;" edge="1" target="3a-3tXw0doICXs7LY1nJ-32" source="3a-3tXw0doICXs7LY1nJ-30" parent="3a-3tXw0doICXs7LY1nJ-1">
          <mxGeometry relative="1" as="geometry">
            <mxPoint x="630" y="460" as="sourcePoint" />
          </mxGeometry>
        </mxCell>
        <mxCell id="3a-3tXw0doICXs7LY1nJ-32" value="&lt;font style=&quot;font-size: 12px&quot;&gt;validated&lt;/font&gt;" style="whiteSpace=wrap;html=1;" vertex="1" parent="3a-3tXw0doICXs7LY1nJ-1">
          <mxGeometry x="412" y="490" width="100" height="40" as="geometry" />
        </mxCell>
        <mxCell id="3a-3tXw0doICXs7LY1nJ-33" value="" style="edgeStyle=elbowEdgeStyle;elbow=vertical;html=1;rounded=0;" edge="1" target="3a-3tXw0doICXs7LY1nJ-34" source="3a-3tXw0doICXs7LY1nJ-30" parent="3a-3tXw0doICXs7LY1nJ-1">
          <mxGeometry relative="1" as="geometry">
            <mxPoint x="630" y="550" as="sourcePoint" />
          </mxGeometry>
        </mxCell>
        <mxCell id="3a-3tXw0doICXs7LY1nJ-34" value="&lt;font style=&quot;font-size: 12px&quot;&gt;not validated&lt;/font&gt;" style="whiteSpace=wrap;html=1;" vertex="1" parent="3a-3tXw0doICXs7LY1nJ-1">
          <mxGeometry x="552" y="490" width="100" height="40" as="geometry" />
        </mxCell>
        <mxCell id="3a-3tXw0doICXs7LY1nJ-35" value="" style="edgeStyle=elbowEdgeStyle;elbow=vertical;html=1;rounded=0;" edge="1" target="3a-3tXw0doICXs7LY1nJ-36" source="3a-3tXw0doICXs7LY1nJ-32" parent="3a-3tXw0doICXs7LY1nJ-1">
          <mxGeometry relative="1" as="geometry">
            <mxPoint x="672" y="550" as="sourcePoint" />
          </mxGeometry>
        </mxCell>
        <mxCell id="3a-3tXw0doICXs7LY1nJ-36" value="&lt;font style=&quot;font-size: 12px&quot;&gt;generate image for qrcode&lt;/font&gt;" style="whiteSpace=wrap;html=1;" vertex="1" parent="3a-3tXw0doICXs7LY1nJ-1">
          <mxGeometry x="412" y="580" width="100" height="40" as="geometry" />
        </mxCell>
        <mxCell id="3a-3tXw0doICXs7LY1nJ-37" value="" style="edgeStyle=elbowEdgeStyle;elbow=vertical;html=1;rounded=0;" edge="1" target="3a-3tXw0doICXs7LY1nJ-38" source="3a-3tXw0doICXs7LY1nJ-36" parent="3a-3tXw0doICXs7LY1nJ-1">
          <mxGeometry relative="1" as="geometry">
            <mxPoint x="602" y="640" as="sourcePoint" />
          </mxGeometry>
        </mxCell>
        <mxCell id="3a-3tXw0doICXs7LY1nJ-38" value="&lt;font style=&quot;font-size: 12px&quot;&gt;dup check&lt;/font&gt;" style="whiteSpace=wrap;html=1;" vertex="1" parent="3a-3tXw0doICXs7LY1nJ-1">
          <mxGeometry x="412" y="670" width="100" height="40" as="geometry" />
        </mxCell>
        <mxCell id="3a-3tXw0doICXs7LY1nJ-39" value="" style="edgeStyle=elbowEdgeStyle;elbow=vertical;html=1;rounded=0;" edge="1" target="3a-3tXw0doICXs7LY1nJ-40" source="3a-3tXw0doICXs7LY1nJ-38" parent="3a-3tXw0doICXs7LY1nJ-1">
          <mxGeometry relative="1" as="geometry">
            <mxPoint x="602" y="730" as="sourcePoint" />
          </mxGeometry>
        </mxCell>
        <mxCell id="3a-3tXw0doICXs7LY1nJ-40" value="&lt;font style=&quot;font-size: 12px&quot;&gt;same day job&lt;/font&gt;" style="whiteSpace=wrap;html=1;" vertex="1" parent="3a-3tXw0doICXs7LY1nJ-1">
          <mxGeometry x="412" y="760" width="100" height="40" as="geometry" />
        </mxCell>
      </root>
    </mxGraphModel>
  </diagram>
</mxfile>
